<svg width="80" height="128" viewBox="0 0 80 128" xmlns="http://www.w3.org/2000/svg"><title>Slice 1</title><path d="M76.988 56.667L23.869 3.628C21.913 1.564 19.47.532 16.536.532s-5.377 1.033-7.333 3.096L3.011 9.739c-2.01 2.01-3.015 4.453-3.015 7.332 0 2.824 1.005 5.296 3.015 7.414L42.607 64 3.01 103.596c-2.01 2.01-3.015 4.454-3.015 7.333 0 2.824 1.005 5.296 3.015 7.414l6.192 6.11c2.01 2.01 4.455 3.015 7.333 3.015 2.879 0 5.324-1.005 7.333-3.015l53.12-53.039c2.01-2.118 3.016-4.59 3.016-7.414 0-2.879-1.006-5.323-3.016-7.333z" fill-rule="evenodd"/></svg>