<svg width="126" height="126" viewBox="0 0 126 126" xmlns="http://www.w3.org/2000/svg"><title>Slice 1</title><path d="M118.686 7.313C114.098 2.724 108.571.429 102.108.429H23.893c-6.463 0-11.99 2.295-16.58 6.884C2.724 11.903.429 17.43.429 23.893v78.214c0 6.463 2.295 11.99 6.884 16.58 4.59 4.59 10.117 6.885 16.58 6.885h78.214c6.463 0 11.99-2.295 16.578-6.885 4.59-4.59 6.885-10.117 6.885-16.58V23.893c0-6.463-2.295-11.991-6.884-16.58zm-11.772 57.479H92.656v51.735H71.31V64.792H60.637V46.949H71.31V36.276c0-7.659 1.793-13.443 5.377-17.354 3.584-3.911 9.504-5.866 17.761-5.866h14.258v17.843h-8.961c-3.042 0-4.984.529-5.826 1.589-.842 1.059-1.263 2.919-1.263 5.581v8.88h16.132l-1.874 17.843z" fill-rule="evenodd"/></svg>