<svg width="126" height="126" viewBox="0 0 126 126" xmlns="http://www.w3.org/2000/svg"><title>Slice 1</title><path d="M120.846 5.155c-3.15-3.151-6.926-4.726-11.324-4.726H16.479c-4.4 0-8.174 1.576-11.325 4.726S.428 12.08.428 16.479v93.042c0 4.399 1.575 8.174 4.726 11.324 3.151 3.151 6.926 4.727 11.325 4.727h93.042c4.398 0 8.174-1.576 11.324-4.727 3.151-3.15 4.725-6.925 4.725-11.324V16.479c0-4.4-1.574-8.173-4.724-11.324zM45.362 45.524c4.915-4.752 10.822-7.129 17.72-7.129 6.952 0 12.886 2.377 17.802 7.129 4.915 4.753 7.373 10.497 7.373 17.232 0 6.734-2.458 12.479-7.373 17.23-4.916 4.753-10.849 7.13-17.802 7.13-6.898 0-12.804-2.378-17.72-7.13-4.916-4.752-7.374-10.496-7.374-17.23 0-6.735 2.458-12.479 7.374-17.232zm66.034 60.658c0 1.411-.49 2.592-1.467 3.543-.979.951-2.146 1.426-3.505 1.426H19.331c-1.412 0-2.594-.475-3.544-1.426-.951-.949-1.426-2.132-1.426-3.543V53.386h11.487c-1.086 3.422-1.629 6.98-1.629 10.673 0 10.43 3.802 19.324 11.406 26.684 7.605 7.359 16.757 11.04 27.457 11.04 7.061 0 13.579-1.685 19.555-5.052 5.975-3.369 10.698-7.944 14.176-13.729 3.477-5.785 5.215-12.1 5.215-18.943 0-3.693-.545-7.25-1.631-10.673h11v52.796h-.001zm0-72.757c0 1.575-.543 2.906-1.631 3.992-1.086 1.087-2.416 1.63-3.992 1.63H91.597c-1.574 0-2.906-.543-3.992-1.63-1.086-1.086-1.629-2.417-1.629-3.992V19.983c0-1.521.543-2.838 1.629-3.952 1.086-1.113 2.418-1.67 3.992-1.67h14.176c1.576 0 2.906.557 3.992 1.67 1.088 1.114 1.631 2.431 1.631 3.952v13.442z" fill-rule="evenodd"/></svg>