<svg version="1.1" xmlns="http://www.w3.org/2000/svg" xmlns:xlink="http://www.w3.org/1999/xlink"><symbol viewBox="0 0 80 128" id="shape-chevron18"><title>Slice 1</title><path d="M76.988 56.667L23.869 3.628C21.913 1.564 19.47.532 16.536.532s-5.377 1.033-7.333 3.096L3.011 9.739c-2.01 2.01-3.015 4.453-3.015 7.332 0 2.824 1.005 5.296 3.015 7.414L42.607 64 3.01 103.596c-2.01 2.01-3.015 4.454-3.015 7.333 0 2.824 1.005 5.296 3.015 7.414l6.192 6.11c2.01 2.01 4.455 3.015 7.333 3.015 2.879 0 5.324-1.005 7.333-3.015l53.12-53.039c2.01-2.118 3.016-4.59 3.016-7.414 0-2.879-1.006-5.323-3.016-7.333z" fill-rule="evenodd"/></symbol><symbol viewBox="0 0 126 126" id="shape-facebook26"><title>Slice 1</title><path d="M118.686 7.313C114.098 2.724 108.571.429 102.108.429H23.893c-6.463 0-11.99 2.295-16.58 6.884C2.724 11.903.429 17.43.429 23.893v78.214c0 6.463 2.295 11.99 6.884 16.58 4.59 4.59 10.117 6.885 16.58 6.885h78.214c6.463 0 11.99-2.295 16.578-6.885 4.59-4.59 6.885-10.117 6.885-16.58V23.893c0-6.463-2.295-11.991-6.884-16.58zm-11.772 57.479H92.656v51.735H71.31V64.792H60.637V46.949H71.31V36.276c0-7.659 1.793-13.443 5.377-17.354 3.584-3.911 9.504-5.866 17.761-5.866h14.258v17.843h-8.961c-3.042 0-4.984.529-5.826 1.589-.842 1.059-1.263 2.919-1.263 5.581v8.88h16.132l-1.874 17.843z" fill-rule="evenodd"/></symbol><symbol viewBox="0 0 126 126" id="shape-instagram"><title>Slice 1</title><path d="M120.846 5.155c-3.15-3.151-6.926-4.726-11.324-4.726H16.479c-4.4 0-8.174 1.576-11.325 4.726S.428 12.08.428 16.479v93.042c0 4.399 1.575 8.174 4.726 11.324 3.151 3.151 6.926 4.727 11.325 4.727h93.042c4.398 0 8.174-1.576 11.324-4.727 3.151-3.15 4.725-6.925 4.725-11.324V16.479c0-4.4-1.574-8.173-4.724-11.324zM45.362 45.524c4.915-4.752 10.822-7.129 17.72-7.129 6.952 0 12.886 2.377 17.802 7.129 4.915 4.753 7.373 10.497 7.373 17.232 0 6.734-2.458 12.479-7.373 17.23-4.916 4.753-10.849 7.13-17.802 7.13-6.898 0-12.804-2.378-17.72-7.13-4.916-4.752-7.374-10.496-7.374-17.23 0-6.735 2.458-12.479 7.374-17.232zm66.034 60.658c0 1.411-.49 2.592-1.467 3.543-.979.951-2.146 1.426-3.505 1.426H19.331c-1.412 0-2.594-.475-3.544-1.426-.951-.949-1.426-2.132-1.426-3.543V53.386h11.487c-1.086 3.422-1.629 6.98-1.629 10.673 0 10.43 3.802 19.324 11.406 26.684 7.605 7.359 16.757 11.04 27.457 11.04 7.061 0 13.579-1.685 19.555-5.052 5.975-3.369 10.698-7.944 14.176-13.729 3.477-5.785 5.215-12.1 5.215-18.943 0-3.693-.545-7.25-1.631-10.673h11v52.796h-.001zm0-72.757c0 1.575-.543 2.906-1.631 3.992-1.086 1.087-2.416 1.63-3.992 1.63H91.597c-1.574 0-2.906-.543-3.992-1.63-1.086-1.086-1.629-2.417-1.629-3.992V19.983c0-1.521.543-2.838 1.629-3.952 1.086-1.113 2.418-1.67 3.992-1.67h14.176c1.576 0 2.906.557 3.992 1.67 1.088 1.114 1.631 2.431 1.631 3.952v13.442z" fill-rule="evenodd"/></symbol><symbol viewBox="0 0 126 126" id="shape-youtube"><title>Slice 1</title><g fill-rule="evenodd"><path d="M118.686 7.313C114.098 2.724 108.571.429 102.108.429H23.893c-6.463 0-11.99 2.295-16.58 6.884C2.724 11.903.429 17.43.429 23.893v78.214c0 6.463 2.295 11.99 6.884 16.58 4.59 4.59 10.117 6.885 16.58 6.885h78.214c6.463 0 11.99-2.295 16.578-6.885 4.59-4.59 6.885-10.117 6.885-16.58V23.893c0-6.463-2.295-11.991-6.884-16.58zM74.325 18.515h5.459v22.16c0 1.304.026 2.01.081 2.119.054.869.49 1.303 1.304 1.303 1.086 0 2.228-.841 3.422-2.525V18.515h5.459V48.66h-5.46V45.4c-2.227 2.444-4.318 3.667-6.273 3.667-1.737 0-2.905-.733-3.504-2.2-.326-.977-.487-2.471-.487-4.481V18.515h-.001zm-20.612 9.777c0-3.15.57-5.513 1.711-7.088 1.466-2.064 3.584-3.096 6.354-3.096 2.662 0 4.781 1.033 6.355 3.096 1.141 1.575 1.711 3.938 1.711 7.088v10.592c0 3.259-.57 5.622-1.711 7.088-1.574 2.065-3.693 3.097-6.355 3.097-2.77 0-4.888-1.033-6.354-3.097-1.141-1.575-1.711-3.938-1.711-7.088V28.292zM39.047 8.168l4.318 15.888L47.52 8.168h6.111l-7.333 24.116h.001V48.66H40.27V32.284c-.598-2.987-1.847-7.278-3.748-12.872l-1.874-5.622-1.956-5.622h6.355zm67.135 98.339c-.543 2.335-1.697 4.317-3.464 5.947-1.764 1.63-3.813 2.581-6.149 2.853-7.441.814-18.631 1.222-33.567 1.222-14.937 0-26.126-.408-33.567-1.222-2.335-.272-4.385-1.223-6.151-2.853-1.765-1.63-2.919-3.612-3.462-5.947-1.086-4.563-1.629-11.624-1.629-21.184 0-9.397.543-16.457 1.629-21.183.543-2.39 1.697-4.386 3.462-5.989 1.766-1.603 3.843-2.54 6.233-2.811 7.386-.816 18.548-1.223 33.485-1.223 14.991 0 26.181.408 33.567 1.223 2.336.272 4.398 1.208 6.19 2.811 1.793 1.602 2.962 3.598 3.505 5.989 1.03 4.508 1.547 11.569 1.547 21.183 0 9.56-.543 16.62-1.629 21.184z"/><path d="M24.87 70.251h6.355v34.463h6.029V70.251h6.518v-5.703H24.87v5.703zM54.69 97.626c-1.195 1.683-2.336 2.525-3.422 2.525-.76 0-1.168-.408-1.222-1.222-.055-.108-.082-.814-.082-2.119V74.812h-5.377v23.627c0 2.064.163 3.531.489 4.399.489 1.521 1.63 2.281 3.422 2.281 2.01 0 4.074-1.222 6.192-3.666v3.259h5.458V74.814H54.69v22.812zM75.793 74.406c-1.956 0-3.803 1.086-5.54 3.259V64.548h-5.459v40.166h5.459v-2.933c1.791 2.227 3.64 3.34 5.54 3.34 2.227 0 3.666-1.141 4.316-3.422.381-1.141.57-3.123.57-5.947V83.857c0-2.879-.191-4.889-.57-6.029-.65-2.281-2.089-3.422-4.316-3.422zm-.49 21.753c0 2.662-.787 3.991-2.363 3.993-.922 0-1.819-.436-2.688-1.305v-18.25c.869-.867 1.766-1.303 2.688-1.303 1.576 0 2.363 1.357 2.363 4.073v12.792zM95.588 96.118c0 .571-.014 1.019-.04 1.345-.026.325-.041.516-.041.569-.325 1.412-1.14 2.118-2.444 2.118-1.847 0-2.77-1.385-2.77-4.155V90.7h10.836v-6.192c0-3.15-.57-5.485-1.711-7.007-1.466-2.063-3.584-3.096-6.355-3.096-2.77 0-4.942 1.033-6.518 3.096-1.086 1.468-1.629 3.804-1.629 7.007v10.51c0 3.205.57 5.541 1.711 7.008 1.575 2.064 3.775 3.096 6.6 3.096 2.879 0 5.051-1.086 6.519-3.259a7.666 7.666 0 0 0 1.222-3.259c.108-.761.163-1.929.163-3.504v-.733h-5.542v1.751h-.001zm-5.293-12.669c0-2.77.896-4.154 2.688-4.154 1.793 0 2.688 1.384 2.688 4.154v2.771h-5.376v-2.771zM61.778 44.097c1.738 0 2.607-1.384 2.607-4.154v-12.71c0-2.824-.869-4.237-2.607-4.237-1.738 0-2.607 1.413-2.607 4.237v12.71c0 2.769.869 4.154 2.607 4.154z"/></g></symbol></svg>